<svg width="38" height="50" viewBox="0 0 38 50" fill="none" xmlns="http://www.w3.org/2000/svg">
<path d="M27.2988 28.1808C27.2988 29.2544 27.7253 30.2841 28.4845 31.0433C29.2437 31.8024 30.2734 32.2289 31.347 32.2289C32.4207 32.2289 33.4503 31.8024 34.2095 31.0433C34.9687 30.2841 35.3952 29.2544 35.3952 28.1808C35.3952 27.1071 34.9687 26.0774 34.2095 25.3183C33.4503 24.5591 32.4207 24.1326 31.347 24.1326C30.2734 24.1326 29.2437 24.5591 28.4845 25.3183C27.7253 26.0774 27.2988 27.1071 27.2988 28.1808Z" stroke="#222222" stroke-width="2" stroke-linecap="round" stroke-linejoin="round"/>
<path d="M36.3561 35.6988C35.7381 34.9731 34.9698 34.3903 34.1045 33.9907C33.2391 33.591 32.2973 33.384 31.3441 33.384C30.3909 33.384 29.4491 33.591 28.5837 33.9907C27.7183 34.3903 26.9501 34.9731 26.332 35.6988" stroke="#222222" stroke-width="2" stroke-linecap="round" stroke-linejoin="round"/>
<path d="M2.61914 28.1808C2.61914 29.2544 3.04564 30.2841 3.80483 31.0433C4.56401 31.8024 5.59368 32.2289 6.66733 32.2289C7.74097 32.2289 8.77065 31.8024 9.52983 31.0433C10.289 30.2841 10.7155 29.2544 10.7155 28.1808C10.7155 27.1071 10.289 26.0774 9.52983 25.3183C8.77065 24.5591 7.74097 24.1326 6.66733 24.1326C5.59368 24.1326 4.56401 24.5591 3.80483 25.3183C3.04564 26.0774 2.61914 27.1071 2.61914 28.1808V28.1808Z" stroke="#222222" stroke-width="2" stroke-linecap="round" stroke-linejoin="round"/>
<path d="M11.6764 35.6988C11.0584 34.9731 10.2901 34.3903 9.42476 33.9907C8.5594 33.591 7.61758 33.384 6.66439 33.384C5.71119 33.384 4.76937 33.591 3.90401 33.9907C3.03865 34.3903 2.27039 34.9731 1.65234 35.6988" stroke="#222222" stroke-width="2" stroke-linecap="round" stroke-linejoin="round"/>
<path d="M15.2715 5.04819C15.2715 5.5798 15.3762 6.10621 15.5796 6.59736C15.7831 7.08851 16.0813 7.53478 16.4572 7.91069C16.8331 8.2866 17.2793 8.58478 17.7705 8.78822C18.2616 8.99167 18.7881 9.09637 19.3197 9.09637C19.8513 9.09637 20.3777 8.99167 20.8688 8.78822C21.36 8.58478 21.8063 8.2866 22.1822 7.91069C22.5581 7.53478 22.8563 7.08851 23.0597 6.59736C23.2631 6.10621 23.3679 5.5798 23.3679 5.04819C23.3679 4.51657 23.2631 3.99016 23.0597 3.49901C22.8563 3.00786 22.5581 2.5616 22.1822 2.18569C21.8063 1.80978 21.36 1.51159 20.8688 1.30815C20.3777 1.10471 19.8513 1 19.3197 1C18.7881 1 18.2616 1.10471 17.7705 1.30815C17.2793 1.51159 16.8331 1.80978 16.4572 2.18569C16.0813 2.5616 15.7831 3.00786 15.5796 3.49901C15.3762 3.99016 15.2715 4.51657 15.2715 5.04819V5.04819Z" stroke="#222222" stroke-width="2" stroke-linecap="round" stroke-linejoin="round"/>
<path d="M15.2715 41.4818C15.2715 42.0134 15.3762 42.5398 15.5796 43.031C15.7831 43.5221 16.0813 43.9684 16.4572 44.3443C16.8331 44.7202 17.2793 45.0184 17.7705 45.2218C18.2616 45.4253 18.7881 45.53 19.3197 45.53C19.8513 45.53 20.3777 45.4253 20.8688 45.2218C21.36 45.0184 21.8063 44.7202 22.1822 44.3443C22.5581 43.9684 22.8563 43.5221 23.0597 43.031C23.2631 42.5398 23.3679 42.0134 23.3679 41.4818C23.3679 40.9502 23.2631 40.4238 23.0597 39.9326C22.8563 39.4415 22.5581 38.9952 22.1822 38.6193C21.8063 38.2434 21.36 37.9452 20.8688 37.7417C20.3777 37.5383 19.8513 37.4336 19.3197 37.4336C18.7881 37.4336 18.2616 37.5383 17.7705 37.7417C17.2793 37.9452 16.8331 38.2434 16.4572 38.6193C16.0813 38.9952 15.7831 39.4415 15.5796 39.9326C15.3762 40.4238 15.2715 40.9502 15.2715 41.4818V41.4818Z" stroke="#222222" stroke-width="2" stroke-linecap="round" stroke-linejoin="round"/>
<path d="M24.3288 12.5662C23.7107 11.8406 22.9425 11.2578 22.0771 10.8581C21.2117 10.4584 20.2699 10.2515 19.3167 10.2515C18.3635 10.2515 17.4217 10.4584 16.5564 10.8581C15.691 11.2578 14.9227 11.8406 14.3047 12.5662" stroke="#222222" stroke-width="2" stroke-linecap="round" stroke-linejoin="round"/>
<path d="M24.3288 49.0001C23.7107 48.2744 22.9425 47.6916 22.0771 47.2919C21.2117 46.8923 20.2699 46.6853 19.3167 46.6853C18.3635 46.6853 17.4217 46.8923 16.5564 47.2919C15.691 47.6916 14.9227 48.2744 14.3047 49.0001" stroke="#222222" stroke-width="2" stroke-linecap="round" stroke-linejoin="round"/>
<path d="M9.41016 25.2012L10.6948 18.4156C10.7433 18.0817 10.9073 17.7754 11.1584 17.5499C11.4095 17.3245 11.7317 17.1943 12.0689 17.1819H25.9484C26.2855 17.1943 26.6077 17.3245 26.8588 17.5499C27.1099 17.7754 27.2739 18.0817 27.3224 18.4156L28.607 25.2012" stroke="#222222" stroke-width="2" stroke-linecap="round" stroke-linejoin="round"/>
</svg>
