<svg width="43" height="42" viewBox="0 0 43 42" fill="none" xmlns="http://www.w3.org/2000/svg">
<path d="M30.5645 32.3334C30.5645 33.5711 31.0561 34.7581 31.9313 35.6333C32.8065 36.5084 33.9934 37.0001 35.2311 37.0001C36.4688 37.0001 37.6558 36.5084 38.531 35.6333C39.4061 34.7581 39.8978 33.5711 39.8978 32.3334C39.8978 31.0957 39.4061 29.9088 38.531 29.0336C37.6558 28.1584 36.4688 27.6667 35.2311 27.6667C33.9934 27.6667 32.8065 28.1584 31.9313 29.0336C31.0561 29.9088 30.5645 31.0957 30.5645 32.3334Z" stroke="#222222" stroke-width="2" stroke-linecap="round" stroke-linejoin="round"/>
<path d="M41.0048 41C40.2923 40.1634 39.4067 39.4916 38.4091 39.0309C37.4115 38.5702 36.3258 38.3315 35.227 38.3315C34.1282 38.3315 33.0425 38.5702 32.0449 39.0309C31.0473 39.4916 30.1617 40.1634 29.4492 41" stroke="#222222" stroke-width="2" stroke-linecap="round" stroke-linejoin="round"/>
<path d="M2.11523 32.3334C2.11523 33.5711 2.6069 34.7581 3.48207 35.6333C4.35724 36.5084 5.54423 37.0001 6.78191 37.0001C8.01959 37.0001 9.20657 36.5084 10.0817 35.6333C10.9569 34.7581 11.4486 33.5711 11.4486 32.3334C11.4486 31.0957 10.9569 29.9088 10.0817 29.0336C9.20657 28.1584 8.01959 27.6667 6.78191 27.6667C5.54423 27.6667 4.35724 28.1584 3.48207 29.0336C2.6069 29.9088 2.11523 31.0957 2.11523 32.3334V32.3334Z" stroke="#222222" stroke-width="2" stroke-linecap="round" stroke-linejoin="round"/>
<path d="M12.5556 41C11.8431 40.1634 10.9575 39.4916 9.9599 39.0309C8.96233 38.5702 7.87661 38.3315 6.77778 38.3315C5.67896 38.3315 4.59324 38.5702 3.59567 39.0309C2.5981 39.4916 1.71247 40.1634 1 41" stroke="#222222" stroke-width="2" stroke-linecap="round" stroke-linejoin="round"/>
<path d="M16.6992 5.66667C16.6992 6.27951 16.8199 6.88634 17.0544 7.45253C17.289 8.01872 17.6327 8.53317 18.0661 8.96651C18.4994 9.39985 19.0138 9.74359 19.58 9.97812C20.1462 10.2126 20.7531 10.3333 21.3659 10.3333C21.9787 10.3333 22.5856 10.2126 23.1517 9.97812C23.7179 9.74359 24.2324 9.39985 24.6657 8.96651C25.0991 8.53317 25.4428 8.01872 25.6773 7.45253C25.9119 6.88634 26.0326 6.27951 26.0326 5.66667C26.0326 5.05384 25.9119 4.447 25.6773 3.88081C25.4428 3.31463 25.0991 2.80018 24.6657 2.36684C24.2324 1.9335 23.7179 1.58975 23.1517 1.35523C22.5856 1.12071 21.9787 1 21.3659 1C20.7531 1 20.1462 1.12071 19.58 1.35523C19.0138 1.58975 18.4994 1.9335 18.0661 2.36684C17.6327 2.80018 17.289 3.31463 17.0544 3.88081C16.8199 4.447 16.6992 5.05384 16.6992 5.66667V5.66667Z" stroke="#222222" stroke-width="2" stroke-linecap="round" stroke-linejoin="round"/>
<path d="M27.1396 14.3335C26.4271 13.4969 25.5415 12.8251 24.5439 12.3644C23.5463 11.9036 22.4606 11.665 21.3618 11.665C20.2629 11.665 19.1772 11.9036 18.1797 12.3644C17.1821 12.8251 16.2965 13.4969 15.584 14.3335" stroke="#222222" stroke-width="2" stroke-linecap="round" stroke-linejoin="round"/>
<path d="M9.94336 28.8988L11.4242 21.0765C11.4802 20.6916 11.6693 20.3384 11.9587 20.0786C12.2481 19.8187 12.6195 19.6686 13.0083 19.6543H29.0083C29.397 19.6686 29.7684 19.8187 30.0578 20.0786C30.3472 20.3384 30.5364 20.6916 30.5923 21.0765L32.0732 28.8988" stroke="#222222" stroke-width="2" stroke-linecap="round" stroke-linejoin="round"/>
</svg>
